<mxfile host="app.diagrams.net" agent="Mozilla/5.0 (Windows NT 10.0; Win64; x64) AppleWebKit/537.36 (KHTML, like Gecko) Chrome/129.0.0.0 Safari/537.36" version="24.7.16" pages="2">
  <diagram name="Page-1" id="xsDp6dCdkebWQSntkEhj">
    <mxGraphModel dx="1105" dy="586" grid="1" gridSize="10" guides="1" tooltips="1" connect="1" arrows="1" fold="1" page="1" pageScale="1" pageWidth="850" pageHeight="1100" math="0" shadow="0">
      <root>
        <mxCell id="0" />
        <mxCell id="1" parent="0" />
        <mxCell id="I6Q9A42GDtmjEfozJYT7-1" value="Tenant" style="shape=umlActor;verticalLabelPosition=bottom;verticalAlign=top;html=1;outlineConnect=0;" vertex="1" parent="1">
          <mxGeometry x="70" y="370" width="30" height="60" as="geometry" />
        </mxCell>
        <mxCell id="I6Q9A42GDtmjEfozJYT7-6" value="Property Manager" style="shape=umlActor;verticalLabelPosition=bottom;verticalAlign=top;html=1;outlineConnect=0;" vertex="1" parent="1">
          <mxGeometry x="700" y="220" width="30" height="60" as="geometry" />
        </mxCell>
        <mxCell id="I6Q9A42GDtmjEfozJYT7-7" value="Maintenance Team" style="shape=umlActor;verticalLabelPosition=bottom;verticalAlign=top;html=1;outlineConnect=0;" vertex="1" parent="1">
          <mxGeometry x="740" y="480" width="30" height="60" as="geometry" />
        </mxCell>
        <mxCell id="I6Q9A42GDtmjEfozJYT7-11" value="&lt;font style=&quot;font-size: 8px;&quot;&gt;Assign Tasks&lt;/font&gt;" style="ellipse;whiteSpace=wrap;html=1;" vertex="1" parent="1">
          <mxGeometry x="395" y="450" width="60" height="30" as="geometry" />
        </mxCell>
        <mxCell id="I6Q9A42GDtmjEfozJYT7-12" value="&lt;font style=&quot;font-size: 8px;&quot;&gt;Report Issue&lt;/font&gt;" style="ellipse;whiteSpace=wrap;html=1;" vertex="1" parent="1">
          <mxGeometry x="270" y="320" width="60" height="30" as="geometry" />
        </mxCell>
        <mxCell id="I6Q9A42GDtmjEfozJYT7-13" value="&lt;font style=&quot;font-size: 8px;&quot;&gt;Track Issue Status&lt;/font&gt;" style="ellipse;whiteSpace=wrap;html=1;" vertex="1" parent="1">
          <mxGeometry x="270" y="385" width="60" height="30" as="geometry" />
        </mxCell>
        <mxCell id="I6Q9A42GDtmjEfozJYT7-14" value="&lt;font style=&quot;font-size: 8px;&quot;&gt;Provide Feedback&lt;/font&gt;" style="ellipse;whiteSpace=wrap;html=1;" vertex="1" parent="1">
          <mxGeometry x="270" y="450" width="60" height="30" as="geometry" />
        </mxCell>
        <mxCell id="I6Q9A42GDtmjEfozJYT7-15" value="&lt;font style=&quot;font-size: 8px;&quot;&gt;View Issues&lt;/font&gt;" style="ellipse;whiteSpace=wrap;html=1;" vertex="1" parent="1">
          <mxGeometry x="395" y="385" width="60" height="30" as="geometry" />
        </mxCell>
        <mxCell id="I6Q9A42GDtmjEfozJYT7-17" value="&lt;font style=&quot;font-size: 8px;&quot;&gt;Receive Tasks&lt;/font&gt;" style="ellipse;whiteSpace=wrap;html=1;" vertex="1" parent="1">
          <mxGeometry x="390" y="260" width="60" height="30" as="geometry" />
        </mxCell>
        <mxCell id="I6Q9A42GDtmjEfozJYT7-18" value="&lt;font style=&quot;font-size: 8px;&quot;&gt;Update Task Progress&lt;/font&gt;" style="ellipse;whiteSpace=wrap;html=1;" vertex="1" parent="1">
          <mxGeometry x="395" y="320" width="60" height="30" as="geometry" />
        </mxCell>
        <mxCell id="I6Q9A42GDtmjEfozJYT7-20" value="" style="endArrow=none;html=1;rounded=0;entryX=0;entryY=0.5;entryDx=0;entryDy=0;" edge="1" parent="1" target="I6Q9A42GDtmjEfozJYT7-12">
          <mxGeometry width="50" height="50" relative="1" as="geometry">
            <mxPoint x="100" y="410" as="sourcePoint" />
            <mxPoint x="150" y="360" as="targetPoint" />
          </mxGeometry>
        </mxCell>
        <mxCell id="I6Q9A42GDtmjEfozJYT7-21" value="" style="endArrow=none;html=1;rounded=0;entryX=0;entryY=0.5;entryDx=0;entryDy=0;" edge="1" parent="1" target="I6Q9A42GDtmjEfozJYT7-13">
          <mxGeometry width="50" height="50" relative="1" as="geometry">
            <mxPoint x="100" y="410" as="sourcePoint" />
            <mxPoint x="160" y="460" as="targetPoint" />
          </mxGeometry>
        </mxCell>
        <mxCell id="I6Q9A42GDtmjEfozJYT7-22" value="" style="endArrow=none;html=1;rounded=0;entryX=0;entryY=0.5;entryDx=0;entryDy=0;" edge="1" parent="1" target="I6Q9A42GDtmjEfozJYT7-14">
          <mxGeometry width="50" height="50" relative="1" as="geometry">
            <mxPoint x="100" y="410" as="sourcePoint" />
            <mxPoint x="180" y="520" as="targetPoint" />
          </mxGeometry>
        </mxCell>
        <mxCell id="I6Q9A42GDtmjEfozJYT7-23" value="" style="endArrow=none;html=1;rounded=0;exitX=1;exitY=0.5;exitDx=0;exitDy=0;fillColor=#fff2cc;strokeColor=#d6b656;" edge="1" parent="1" source="I6Q9A42GDtmjEfozJYT7-17">
          <mxGeometry width="50" height="50" relative="1" as="geometry">
            <mxPoint x="650" y="300" as="sourcePoint" />
            <mxPoint x="700" y="250" as="targetPoint" />
          </mxGeometry>
        </mxCell>
        <mxCell id="I6Q9A42GDtmjEfozJYT7-24" value="" style="endArrow=none;html=1;rounded=0;exitX=1;exitY=0.5;exitDx=0;exitDy=0;fillColor=#fff2cc;strokeColor=#d6b656;" edge="1" parent="1" source="I6Q9A42GDtmjEfozJYT7-18">
          <mxGeometry width="50" height="50" relative="1" as="geometry">
            <mxPoint x="650" y="300" as="sourcePoint" />
            <mxPoint x="700" y="250" as="targetPoint" />
          </mxGeometry>
        </mxCell>
        <mxCell id="I6Q9A42GDtmjEfozJYT7-25" value="" style="endArrow=none;html=1;rounded=0;exitX=1;exitY=0.5;exitDx=0;exitDy=0;fillColor=#fff2cc;strokeColor=#d6b656;" edge="1" parent="1" source="I6Q9A42GDtmjEfozJYT7-15">
          <mxGeometry width="50" height="50" relative="1" as="geometry">
            <mxPoint x="650" y="300" as="sourcePoint" />
            <mxPoint x="700" y="250" as="targetPoint" />
          </mxGeometry>
        </mxCell>
        <mxCell id="I6Q9A42GDtmjEfozJYT7-26" value="" style="endArrow=none;html=1;rounded=0;exitX=1;exitY=0.5;exitDx=0;exitDy=0;fillColor=#fff2cc;strokeColor=#d6b656;" edge="1" parent="1" source="I6Q9A42GDtmjEfozJYT7-11">
          <mxGeometry width="50" height="50" relative="1" as="geometry">
            <mxPoint x="610" y="370" as="sourcePoint" />
            <mxPoint x="700" y="250" as="targetPoint" />
          </mxGeometry>
        </mxCell>
        <mxCell id="I6Q9A42GDtmjEfozJYT7-27" value="" style="endArrow=none;html=1;rounded=0;exitX=1;exitY=0.5;exitDx=0;exitDy=0;fillColor=#ffcd28;strokeColor=#000000;gradientColor=#ffa500;" edge="1" parent="1" source="I6Q9A42GDtmjEfozJYT7-17">
          <mxGeometry width="50" height="50" relative="1" as="geometry">
            <mxPoint x="670" y="550" as="sourcePoint" />
            <mxPoint x="730" y="510" as="targetPoint" />
          </mxGeometry>
        </mxCell>
        <mxCell id="I6Q9A42GDtmjEfozJYT7-28" value="" style="endArrow=none;html=1;rounded=0;exitX=1;exitY=0.5;exitDx=0;exitDy=0;" edge="1" parent="1" source="I6Q9A42GDtmjEfozJYT7-18">
          <mxGeometry width="50" height="50" relative="1" as="geometry">
            <mxPoint x="680" y="560" as="sourcePoint" />
            <mxPoint x="730" y="510" as="targetPoint" />
          </mxGeometry>
        </mxCell>
        <mxCell id="I6Q9A42GDtmjEfozJYT7-29" value="Tenant Maintenance Reporting System" style="swimlane;whiteSpace=wrap;html=1;" vertex="1" parent="1">
          <mxGeometry x="250" y="220" width="230" height="340" as="geometry" />
        </mxCell>
        <mxCell id="I6Q9A42GDtmjEfozJYT7-31" value="&lt;font style=&quot;font-size: 8px;&quot;&gt;include&lt;/font&gt;" style="endArrow=open;endSize=5;dashed=1;html=1;rounded=0;entryX=1;entryY=0.5;entryDx=0;entryDy=0;exitX=0;exitY=0.5;exitDx=0;exitDy=0;" edge="1" parent="I6Q9A42GDtmjEfozJYT7-29">
          <mxGeometry width="160" relative="1" as="geometry">
            <mxPoint x="135" y="124.79000000000002" as="sourcePoint" />
            <mxPoint x="70" y="124.79000000000002" as="targetPoint" />
          </mxGeometry>
        </mxCell>
        <mxCell id="I6Q9A42GDtmjEfozJYT7-32" value="&lt;font style=&quot;font-size: 8px;&quot;&gt;view Feedback&lt;/font&gt;" style="ellipse;whiteSpace=wrap;html=1;" vertex="1" parent="I6Q9A42GDtmjEfozJYT7-29">
          <mxGeometry x="135" y="300" width="60" height="30" as="geometry" />
        </mxCell>
        <mxCell id="I6Q9A42GDtmjEfozJYT7-36" value="&lt;font style=&quot;font-size: 8px;&quot;&gt;include&lt;/font&gt;" style="endArrow=open;endSize=5;dashed=1;html=1;rounded=0;entryX=1;entryY=1;entryDx=0;entryDy=0;exitX=0;exitY=0.5;exitDx=0;exitDy=0;" edge="1" parent="I6Q9A42GDtmjEfozJYT7-29" target="I6Q9A42GDtmjEfozJYT7-14">
          <mxGeometry width="160" relative="1" as="geometry">
            <mxPoint x="135" y="314.47" as="sourcePoint" />
            <mxPoint x="70" y="314.47" as="targetPoint" />
          </mxGeometry>
        </mxCell>
        <mxCell id="I6Q9A42GDtmjEfozJYT7-30" value="&lt;font style=&quot;font-size: 8px;&quot;&gt;include&lt;/font&gt;" style="endArrow=open;endSize=5;dashed=1;html=1;rounded=0;entryX=1;entryY=0.5;entryDx=0;entryDy=0;exitX=0;exitY=0.5;exitDx=0;exitDy=0;" edge="1" parent="1" source="I6Q9A42GDtmjEfozJYT7-15" target="I6Q9A42GDtmjEfozJYT7-13">
          <mxGeometry width="160" relative="1" as="geometry">
            <mxPoint x="390" y="400" as="sourcePoint" />
            <mxPoint x="570" y="600" as="targetPoint" />
          </mxGeometry>
        </mxCell>
        <mxCell id="I6Q9A42GDtmjEfozJYT7-33" value="" style="endArrow=none;html=1;rounded=0;exitX=1;exitY=0.5;exitDx=0;exitDy=0;fillColor=#fff2cc;strokeColor=#d6b656;" edge="1" parent="1" source="I6Q9A42GDtmjEfozJYT7-32">
          <mxGeometry width="50" height="50" relative="1" as="geometry">
            <mxPoint x="510" y="550" as="sourcePoint" />
            <mxPoint x="700" y="250" as="targetPoint" />
          </mxGeometry>
        </mxCell>
        <mxCell id="I6Q9A42GDtmjEfozJYT7-34" value="" style="endArrow=none;html=1;rounded=0;exitX=1;exitY=0.5;exitDx=0;exitDy=0;" edge="1" parent="1" source="I6Q9A42GDtmjEfozJYT7-32">
          <mxGeometry width="50" height="50" relative="1" as="geometry">
            <mxPoint x="680" y="560" as="sourcePoint" />
            <mxPoint x="730" y="510" as="targetPoint" />
          </mxGeometry>
        </mxCell>
        <mxCell id="I6Q9A42GDtmjEfozJYT7-38" value="" style="endArrow=none;html=1;rounded=0;entryX=0.037;entryY=0.594;entryDx=0;entryDy=0;entryPerimeter=0;" edge="1" parent="1" target="I6Q9A42GDtmjEfozJYT7-37">
          <mxGeometry width="50" height="50" relative="1" as="geometry">
            <mxPoint x="100" y="410" as="sourcePoint" />
            <mxPoint x="150" y="360" as="targetPoint" />
          </mxGeometry>
        </mxCell>
        <mxCell id="I6Q9A42GDtmjEfozJYT7-39" value="" style="endArrow=none;html=1;rounded=0;entryX=0.997;entryY=0.678;entryDx=0;entryDy=0;entryPerimeter=0;fillColor=#ffe6cc;strokeColor=#d79b00;" edge="1" parent="1" target="I6Q9A42GDtmjEfozJYT7-37">
          <mxGeometry width="50" height="50" relative="1" as="geometry">
            <mxPoint x="700" y="250" as="sourcePoint" />
            <mxPoint x="750" y="200" as="targetPoint" />
          </mxGeometry>
        </mxCell>
        <mxCell id="I6Q9A42GDtmjEfozJYT7-40" value="" style="endArrow=none;html=1;rounded=0;fillColor=#008a00;strokeColor=#000000;entryX=0.98;entryY=0.642;entryDx=0;entryDy=0;entryPerimeter=0;" edge="1" parent="1" target="I6Q9A42GDtmjEfozJYT7-37">
          <mxGeometry width="50" height="50" relative="1" as="geometry">
            <mxPoint x="730" y="510" as="sourcePoint" />
            <mxPoint x="380" y="80" as="targetPoint" />
          </mxGeometry>
        </mxCell>
        <mxCell id="I6Q9A42GDtmjEfozJYT7-37" value="interactive AI" style="image;sketch=0;aspect=fixed;html=1;points=[];align=center;fontSize=12;image=img/lib/mscae/Bot_Services.svg;" vertex="1" parent="1">
          <mxGeometry x="340" y="670" width="50" height="50" as="geometry" />
        </mxCell>
      </root>
    </mxGraphModel>
  </diagram>
  <diagram id="4BLHx6v-9PdVjJBHBHyy" name="Page-2">
    <mxGraphModel dx="1750" dy="928" grid="1" gridSize="10" guides="1" tooltips="1" connect="1" arrows="1" fold="1" page="1" pageScale="1" pageWidth="850" pageHeight="1100" math="0" shadow="0">
      <root>
        <mxCell id="0" />
        <mxCell id="1" parent="0" />
        <mxCell id="TRIYm9vYw2KUUeL4gzas-1" value="Tenant" style="swimlane;childLayout=stackLayout;horizontal=1;startSize=50;horizontalStack=0;rounded=1;fontSize=14;fontStyle=0;strokeWidth=2;resizeParent=0;resizeLast=1;shadow=0;dashed=0;align=center;arcSize=4;whiteSpace=wrap;html=1;" vertex="1" parent="1">
          <mxGeometry x="10" y="270" width="160" height="150" as="geometry" />
        </mxCell>
        <mxCell id="TRIYm9vYw2KUUeL4gzas-2" value="&lt;li&gt;&lt;strong&gt;tenant_id&lt;/strong&gt; (Primary Key)&lt;/li&gt;&lt;li&gt;&lt;strong&gt;name&lt;/strong&gt;&lt;/li&gt;&lt;li&gt;&lt;strong&gt;email&lt;/strong&gt;&lt;/li&gt;&lt;li&gt;&lt;strong&gt;phone_number&lt;/strong&gt;&lt;/li&gt;&lt;li&gt;&lt;strong&gt;unit_number&lt;/strong&gt;&lt;/li&gt;&lt;li&gt;&lt;strong&gt;created_at&lt;/strong&gt;&lt;/li&gt;" style="align=left;strokeColor=none;fillColor=none;spacingLeft=4;fontSize=12;verticalAlign=top;resizable=0;rotatable=0;part=1;html=1;" vertex="1" parent="TRIYm9vYw2KUUeL4gzas-1">
          <mxGeometry y="50" width="160" height="100" as="geometry" />
        </mxCell>
        <mxCell id="TRIYm9vYw2KUUeL4gzas-3" value="Property Manager" style="swimlane;childLayout=stackLayout;horizontal=1;startSize=50;horizontalStack=0;rounded=1;fontSize=14;fontStyle=0;strokeWidth=2;resizeParent=0;resizeLast=1;shadow=0;dashed=0;align=center;arcSize=4;whiteSpace=wrap;html=1;" vertex="1" parent="1">
          <mxGeometry x="630" y="70" width="190" height="140" as="geometry" />
        </mxCell>
        <mxCell id="TRIYm9vYw2KUUeL4gzas-4" value="&lt;li&gt;&lt;strong&gt;manager_id&lt;/strong&gt; (Primary Key)&lt;/li&gt;&lt;li&gt;&lt;strong&gt;name&lt;/strong&gt;&lt;/li&gt;&lt;li&gt;&lt;strong&gt;email&lt;/strong&gt;&lt;/li&gt;&lt;li&gt;&lt;strong&gt;phone_number&lt;/strong&gt;&lt;/li&gt;&lt;li&gt;&lt;/li&gt;" style="align=left;strokeColor=none;fillColor=none;spacingLeft=4;fontSize=12;verticalAlign=top;resizable=0;rotatable=0;part=1;html=1;" vertex="1" parent="TRIYm9vYw2KUUeL4gzas-3">
          <mxGeometry y="50" width="190" height="90" as="geometry" />
        </mxCell>
        <mxCell id="TRIYm9vYw2KUUeL4gzas-5" value="Maintenance Team" style="swimlane;childLayout=stackLayout;horizontal=1;startSize=50;horizontalStack=0;rounded=1;fontSize=14;fontStyle=0;strokeWidth=2;resizeParent=0;resizeLast=1;shadow=0;dashed=0;align=center;arcSize=4;whiteSpace=wrap;html=1;" vertex="1" parent="1">
          <mxGeometry x="560" y="490" width="260" height="180" as="geometry" />
        </mxCell>
        <mxCell id="TRIYm9vYw2KUUeL4gzas-6" value="&lt;li&gt;&lt;strong&gt;issue_id&lt;/strong&gt; (Primary Key)&lt;/li&gt;&lt;li&gt;&lt;strong&gt;tenant_id&lt;/strong&gt; (Foreign Key)&lt;/li&gt;&lt;li&gt;&lt;strong&gt;description&lt;/strong&gt;&lt;/li&gt;&lt;li&gt;&lt;strong&gt;status&lt;/strong&gt; (, reported, in progress, resolved)&lt;/li&gt;&lt;li&gt;&lt;strong&gt;priority&lt;/strong&gt; ( urgent, normal)&lt;/li&gt;&lt;li&gt;&lt;strong&gt;category&lt;/strong&gt; (plumbing, electrical)&lt;/li&gt;&lt;li&gt;&lt;strong&gt;created_at&lt;/strong&gt;&lt;/li&gt;&lt;li&gt;&lt;strong&gt;updated_at&lt;/strong&gt;&lt;/li&gt;" style="align=left;strokeColor=none;fillColor=none;spacingLeft=4;fontSize=12;verticalAlign=top;resizable=0;rotatable=0;part=1;html=1;" vertex="1" parent="TRIYm9vYw2KUUeL4gzas-5">
          <mxGeometry y="50" width="260" height="130" as="geometry" />
        </mxCell>
        <mxCell id="TRIYm9vYw2KUUeL4gzas-7" value="Task Assignment" style="swimlane;childLayout=stackLayout;horizontal=1;startSize=50;horizontalStack=0;rounded=1;fontSize=14;fontStyle=0;strokeWidth=2;resizeParent=0;resizeLast=1;shadow=0;dashed=0;align=center;arcSize=4;whiteSpace=wrap;html=1;" vertex="1" parent="1">
          <mxGeometry x="590" y="800" width="200" height="150" as="geometry" />
        </mxCell>
        <mxCell id="TRIYm9vYw2KUUeL4gzas-8" value="&lt;li&gt;&lt;strong&gt;assignment_id&lt;/strong&gt; (Primary Key)&lt;/li&gt;&lt;li&gt;&lt;strong&gt;issue_id&lt;/strong&gt; (Foreign Key)&lt;/li&gt;&lt;li&gt;&lt;strong&gt;team_member_id&lt;/strong&gt; (Foreign Key)&lt;/li&gt;&lt;li&gt;&lt;strong&gt;assigned_at&lt;/strong&gt;&lt;/li&gt;&lt;li&gt;&lt;strong&gt;due_date&lt;/strong&gt;&lt;/li&gt;&lt;li&gt;&lt;strong&gt;completed_at&lt;/strong&gt;&lt;/li&gt;" style="align=left;strokeColor=none;fillColor=none;spacingLeft=4;fontSize=12;verticalAlign=top;resizable=0;rotatable=0;part=1;html=1;" vertex="1" parent="TRIYm9vYw2KUUeL4gzas-7">
          <mxGeometry y="50" width="200" height="100" as="geometry" />
        </mxCell>
        <mxCell id="TRIYm9vYw2KUUeL4gzas-9" value="Feedback" style="swimlane;childLayout=stackLayout;horizontal=1;startSize=50;horizontalStack=0;rounded=1;fontSize=14;fontStyle=0;strokeWidth=2;resizeParent=0;resizeLast=1;shadow=0;dashed=0;align=center;arcSize=4;whiteSpace=wrap;html=1;" vertex="1" parent="1">
          <mxGeometry x="20" y="505" width="180" height="150" as="geometry" />
        </mxCell>
        <mxCell id="TRIYm9vYw2KUUeL4gzas-10" value="&lt;li&gt;&lt;strong&gt;feedback_id&lt;/strong&gt; (Primary Key)&lt;/li&gt;&lt;li&gt;&lt;strong&gt;issue_id&lt;/strong&gt; (Foreign Key)&lt;/li&gt;&lt;li&gt;&lt;strong&gt;tenant_id&lt;/strong&gt; (Foreign Key)&lt;/li&gt;&lt;li&gt;&lt;strong&gt;rating&lt;/strong&gt; ( 1 to 5)&lt;/li&gt;&lt;li&gt;&lt;strong&gt;comments&lt;/strong&gt;&lt;/li&gt;&lt;li&gt;&lt;strong&gt;created_at&lt;/strong&gt;&lt;/li&gt;" style="align=left;strokeColor=none;fillColor=none;spacingLeft=4;fontSize=12;verticalAlign=top;resizable=0;rotatable=0;part=1;html=1;" vertex="1" parent="TRIYm9vYw2KUUeL4gzas-9">
          <mxGeometry y="50" width="180" height="100" as="geometry" />
        </mxCell>
        <mxCell id="TRIYm9vYw2KUUeL4gzas-11" value="AI Solutions" style="swimlane;childLayout=stackLayout;horizontal=1;startSize=50;horizontalStack=0;rounded=1;fontSize=14;fontStyle=0;strokeWidth=2;resizeParent=0;resizeLast=1;shadow=0;dashed=0;align=center;arcSize=4;whiteSpace=wrap;html=1;" vertex="1" parent="1">
          <mxGeometry x="350" y="20" width="180" height="120" as="geometry" />
        </mxCell>
        <mxCell id="TRIYm9vYw2KUUeL4gzas-12" value="&lt;li&gt;&lt;strong&gt;solution_id&lt;/strong&gt; (Primary Key)&lt;/li&gt;&lt;li&gt;&lt;strong&gt;issue_id&lt;/strong&gt; (Foreign Key)&lt;/li&gt;&lt;li&gt;&lt;strong&gt;suggested_solution&lt;/strong&gt;&lt;/li&gt;&lt;li&gt;&lt;strong&gt;created_at&lt;/strong&gt;&lt;/li&gt;" style="align=left;strokeColor=none;fillColor=none;spacingLeft=4;fontSize=12;verticalAlign=top;resizable=0;rotatable=0;part=1;html=1;" vertex="1" parent="TRIYm9vYw2KUUeL4gzas-11">
          <mxGeometry y="50" width="180" height="70" as="geometry" />
        </mxCell>
        <mxCell id="TRIYm9vYw2KUUeL4gzas-13" value="Maintenance Issue" style="swimlane;childLayout=stackLayout;horizontal=1;startSize=50;horizontalStack=0;rounded=1;fontSize=14;fontStyle=0;strokeWidth=2;resizeParent=0;resizeLast=1;shadow=0;dashed=0;align=center;arcSize=4;whiteSpace=wrap;html=1;" vertex="1" parent="1">
          <mxGeometry x="310" y="270" width="260" height="180" as="geometry" />
        </mxCell>
        <mxCell id="TRIYm9vYw2KUUeL4gzas-14" value="&lt;li&gt;&lt;strong&gt;issue_id&lt;/strong&gt; (Primary Key)&lt;/li&gt;&lt;li&gt;&lt;strong&gt;tenant_id&lt;/strong&gt; (Foreign Key)&lt;/li&gt;&lt;li&gt;&lt;strong&gt;description&lt;/strong&gt;&lt;/li&gt;&lt;li&gt;&lt;strong&gt;status&lt;/strong&gt; ( reported, in progress, resolved)&lt;/li&gt;&lt;li&gt;&lt;strong&gt;priority&lt;/strong&gt; (urgent, normal)&lt;/li&gt;&lt;li&gt;&lt;strong&gt;category&lt;/strong&gt; (plumbing, electrical)&lt;/li&gt;&lt;li&gt;&lt;strong&gt;created_at&lt;/strong&gt;&lt;/li&gt;&lt;li&gt;&lt;strong&gt;updated_at&lt;/strong&gt;&lt;/li&gt;" style="align=left;strokeColor=none;fillColor=none;spacingLeft=4;fontSize=12;verticalAlign=top;resizable=0;rotatable=0;part=1;html=1;" vertex="1" parent="TRIYm9vYw2KUUeL4gzas-13">
          <mxGeometry y="50" width="260" height="130" as="geometry" />
        </mxCell>
        <mxCell id="TRIYm9vYw2KUUeL4gzas-19" value="" style="edgeStyle=entityRelationEdgeStyle;fontSize=12;html=1;endArrow=ERoneToMany;rounded=0;entryX=0;entryY=0.5;entryDx=0;entryDy=0;" edge="1" parent="1" target="TRIYm9vYw2KUUeL4gzas-13">
          <mxGeometry width="100" height="100" relative="1" as="geometry">
            <mxPoint x="170" y="360" as="sourcePoint" />
            <mxPoint x="260" y="260" as="targetPoint" />
          </mxGeometry>
        </mxCell>
        <mxCell id="TRIYm9vYw2KUUeL4gzas-20" value="" style="edgeStyle=orthogonalEdgeStyle;fontSize=12;html=1;endArrow=ERoneToMany;rounded=0;entryX=0.5;entryY=1;entryDx=0;entryDy=0;" edge="1" parent="1">
          <mxGeometry width="100" height="100" relative="1" as="geometry">
            <mxPoint x="570" y="371" as="sourcePoint" />
            <mxPoint x="715" y="210" as="targetPoint" />
          </mxGeometry>
        </mxCell>
        <mxCell id="TRIYm9vYw2KUUeL4gzas-23" value="" style="fontSize=12;html=1;endArrow=ERoneToMany;rounded=0;entryX=0.589;entryY=-0.011;entryDx=0;entryDy=0;entryPerimeter=0;edgeStyle=orthogonalEdgeStyle;" edge="1" parent="1" target="TRIYm9vYw2KUUeL4gzas-5">
          <mxGeometry width="100" height="100" relative="1" as="geometry">
            <mxPoint x="570" y="390" as="sourcePoint" />
            <mxPoint x="810" y="400" as="targetPoint" />
            <Array as="points">
              <mxPoint x="713" y="390" />
            </Array>
          </mxGeometry>
        </mxCell>
        <mxCell id="TRIYm9vYw2KUUeL4gzas-24" value="" style="edgeStyle=orthogonalEdgeStyle;fontSize=12;html=1;endArrow=ERoneToMany;rounded=0;entryX=0.461;entryY=0.999;entryDx=0;entryDy=0;entryPerimeter=0;" edge="1" parent="1" target="TRIYm9vYw2KUUeL4gzas-14">
          <mxGeometry width="100" height="100" relative="1" as="geometry">
            <mxPoint x="200" y="601" as="sourcePoint" />
            <mxPoint x="429" y="457" as="targetPoint" />
          </mxGeometry>
        </mxCell>
        <mxCell id="TRIYm9vYw2KUUeL4gzas-25" value="" style="fontSize=12;html=1;endArrow=ERoneToMany;rounded=0;exitX=0.437;exitY=1.04;exitDx=0;exitDy=0;exitPerimeter=0;" edge="1" parent="1" source="TRIYm9vYw2KUUeL4gzas-12">
          <mxGeometry width="100" height="100" relative="1" as="geometry">
            <mxPoint x="180" y="190" as="sourcePoint" />
            <mxPoint x="429" y="270" as="targetPoint" />
          </mxGeometry>
        </mxCell>
        <mxCell id="TRIYm9vYw2KUUeL4gzas-27" value="" style="fontSize=12;html=1;endArrow=ERoneToMany;rounded=0;exitX=0.5;exitY=1;exitDx=0;exitDy=0;entryX=0.5;entryY=0;entryDx=0;entryDy=0;" edge="1" parent="1" source="TRIYm9vYw2KUUeL4gzas-6" target="TRIYm9vYw2KUUeL4gzas-7">
          <mxGeometry width="100" height="100" relative="1" as="geometry">
            <mxPoint x="340" y="910" as="sourcePoint" />
            <mxPoint x="440" y="810" as="targetPoint" />
          </mxGeometry>
        </mxCell>
        <mxCell id="TRIYm9vYw2KUUeL4gzas-28" value="" style="edgeStyle=orthogonalEdgeStyle;fontSize=12;html=1;endArrow=ERoneToMany;rounded=0;exitX=0.626;exitY=1;exitDx=0;exitDy=0;exitPerimeter=0;entryX=0;entryY=0.5;entryDx=0;entryDy=0;" edge="1" parent="1" source="TRIYm9vYw2KUUeL4gzas-14" target="TRIYm9vYw2KUUeL4gzas-8">
          <mxGeometry width="100" height="100" relative="1" as="geometry">
            <mxPoint x="350" y="820" as="sourcePoint" />
            <mxPoint x="450" y="720" as="targetPoint" />
          </mxGeometry>
        </mxCell>
      </root>
    </mxGraphModel>
  </diagram>
</mxfile>
